# xmcd CD database file
#
# Track frame offsets:
#	150
#	19983
#	41078
#	67907
#	90761
#
# Disc length: 1442 seconds
#
# Revision: 0
# Processed by: cddbd v1.5.1PL2 Copyright (c) Steve Scherf et al.
# Submitted via: CDex 1.51
#
DISCID=3205a005
DTITLE=しらいしりょうこ - Assembling
DYEAR=2005
DGENRE=JPop
TTITLE0=だからキスをして
TTITLE1=probably
TTITLE2=水玉のワンピース
TTITLE3=黒い海
TTITLE4=ざくろ
EXTD=YEAR: 2005
EXTT0=
EXTT1=
EXTT2=
EXTT3=
EXTT4=
PLAYORDER=
